<svg width="21" height="17" viewBox="0 0 21 17" fill="none" xmlns="http://www.w3.org/2000/svg">
<path d="M13.2117 6.18182C13.7089 6.18182 14.1859 6.365 14.5375 6.69105C14.8891 7.01711 15.0867 7.45934 15.0867 7.92045V12.7492C15.0867 13.8766 14.6037 14.9578 13.744 15.755C12.8843 16.5522 11.7183 17 10.5025 17C9.2867 17 8.1207 16.5522 7.261 15.755C6.40131 14.9578 5.91833 13.8766 5.91833 12.7492V7.92045C5.91833 7.45934 6.11588 7.01711 6.46751 6.69105C6.81914 6.365 7.29605 6.18182 7.79333 6.18182H13.2117ZM13.2117 7.34091H7.79333C7.62757 7.34091 7.4686 7.40197 7.35139 7.51065C7.23418 7.61934 7.16833 7.76675 7.16833 7.92045V12.7492C7.16833 13.5692 7.51961 14.3556 8.14489 14.9354C8.77017 15.5152 9.61822 15.8409 10.5025 15.8409C11.3868 15.8409 12.2348 15.5152 12.8601 14.9354C13.4854 14.3556 13.8367 13.5692 13.8367 12.7492V7.92045C13.8367 7.76675 13.7708 7.61934 13.6536 7.51065C13.5364 7.40197 13.3774 7.34091 13.2117 7.34091ZM2.375 6.18182H5.83833C5.50367 6.50476 5.26855 6.90503 5.1575 7.34091H2.375C2.20924 7.34091 2.05027 7.40197 1.93306 7.51065C1.81585 7.61934 1.75 7.76675 1.75 7.92045V11.9765C1.74967 12.3643 1.85426 12.746 2.0542 13.0866C2.25413 13.4272 2.54301 13.7158 2.8944 13.9261C3.24579 14.1364 3.64845 14.2616 4.06552 14.2902C4.48258 14.3188 4.90073 14.2499 5.28167 14.0899C5.3925 14.4685 5.55167 14.8286 5.75167 15.1655C5.18074 15.3969 4.55664 15.4927 3.93576 15.4443C3.31489 15.3959 2.7168 15.2048 2.19556 14.8883C1.67432 14.5717 1.24634 14.1398 0.950308 13.6314C0.654273 13.123 0.499509 12.5543 0.500001 11.9765V7.92045C0.500001 7.45934 0.697545 7.01711 1.04918 6.69105C1.40081 6.365 1.87772 6.18182 2.375 6.18182ZM18.625 6.18182C19.1223 6.18182 19.5992 6.365 19.9508 6.69105C20.3025 7.01711 20.5 7.45934 20.5 7.92045V11.9773C20.5002 12.5546 20.3455 13.123 20.0496 13.631C19.7537 14.139 19.3261 14.5707 18.8053 14.8871C18.2846 15.2036 17.687 15.3948 17.0666 15.4435C16.4462 15.4923 15.8224 15.397 15.2517 15.1663L15.2983 15.0875C15.4767 14.7738 15.6208 14.4407 15.7242 14.0915C16.1049 14.2503 16.5225 14.3182 16.9388 14.289C17.3551 14.2597 17.7569 14.1343 18.1075 13.9241C18.4581 13.7138 18.7464 13.4255 18.9459 13.0855C19.1455 12.7454 19.25 12.3644 19.25 11.9773V7.92045C19.25 7.76688 19.1843 7.61959 19.0672 7.51093C18.9502 7.40226 18.7914 7.34111 18.6258 7.34091H15.8483C15.737 6.90495 15.5016 6.50467 15.1667 6.18182H18.625ZM10.5 0C10.883 -7.48456e-09 11.2623 0.0699551 11.6162 0.205871C11.97 0.341787 12.2916 0.541003 12.5624 0.792143C12.8332 1.04328 13.0481 1.34143 13.1946 1.66956C13.3412 1.99769 13.4167 2.34938 13.4167 2.70455C13.4167 3.05971 13.3412 3.4114 13.1946 3.73953C13.0481 4.06766 12.8332 4.36581 12.5624 4.61695C12.2916 4.86809 11.97 5.0673 11.6162 5.20322C11.2623 5.33914 10.883 5.40909 10.5 5.40909C9.72645 5.40909 8.98459 5.12415 8.4376 4.61695C7.89062 4.10975 7.58333 3.42184 7.58333 2.70455C7.58333 1.98726 7.89062 1.29934 8.4376 0.792143C8.98459 0.284942 9.72645 1.51158e-08 10.5 0ZM17.1692 0.772727C17.4975 0.772727 17.8226 0.832689 18.1259 0.949189C18.4292 1.06569 18.7048 1.23644 18.9369 1.45171C19.1691 1.66697 19.3532 1.92252 19.4789 2.20378C19.6045 2.48503 19.6692 2.78648 19.6692 3.09091C19.6692 3.39534 19.6045 3.69678 19.4789 3.97804C19.3532 4.25929 19.1691 4.51485 18.9369 4.73011C18.7048 4.94537 18.4292 5.11613 18.1259 5.23263C17.8226 5.34913 17.4975 5.40909 17.1692 5.40909C16.5061 5.40909 15.8702 5.16486 15.4014 4.73011C14.9326 4.29537 14.6692 3.70573 14.6692 3.09091C14.6692 2.47609 14.9326 1.88645 15.4014 1.45171C15.8702 1.01696 16.5061 0.772727 17.1692 0.772727ZM3.83083 0.772727C4.15914 0.772727 4.48423 0.832689 4.78754 0.949189C5.09086 1.06569 5.36645 1.23644 5.5986 1.45171C5.83075 1.66697 6.0149 1.92252 6.14053 2.20378C6.26617 2.48503 6.33083 2.78648 6.33083 3.09091C6.33083 3.39534 6.26617 3.69678 6.14053 3.97804C6.0149 4.25929 5.83075 4.51485 5.5986 4.73011C5.36645 4.94537 5.09086 5.11613 4.78754 5.23263C4.48423 5.34913 4.15914 5.40909 3.83083 5.40909C3.16779 5.40909 2.53191 5.16486 2.06307 4.73011C1.59423 4.29537 1.33083 3.70573 1.33083 3.09091C1.33083 2.47609 1.59423 1.88645 2.06307 1.45171C2.53191 1.01696 3.16779 0.772727 3.83083 0.772727ZM10.5 1.15909C10.058 1.15909 9.63405 1.32192 9.32149 1.61174C9.00893 1.90157 8.83333 2.29467 8.83333 2.70455C8.83333 3.11443 9.00893 3.50752 9.32149 3.79735C9.63405 4.08718 10.058 4.25 10.5 4.25C10.942 4.25 11.3659 4.08718 11.6785 3.79735C11.9911 3.50752 12.1667 3.11443 12.1667 2.70455C12.1667 2.29467 11.9911 1.90157 11.6785 1.61174C11.3659 1.32192 10.942 1.15909 10.5 1.15909ZM17.1692 1.93182C17.005 1.93182 16.8425 1.9618 16.6908 2.02005C16.5392 2.0783 16.4014 2.16368 16.2853 2.27131C16.1692 2.37894 16.0771 2.50672 16.0143 2.64734C15.9515 2.78797 15.9192 2.9387 15.9192 3.09091C15.9192 3.24312 15.9515 3.39385 16.0143 3.53447C16.0771 3.6751 16.1692 3.80288 16.2853 3.91051C16.4014 4.01814 16.5392 4.10352 16.6908 4.16177C16.8425 4.22002 17.005 4.25 17.1692 4.25C17.5007 4.25 17.8186 4.12788 18.053 3.91051C18.2875 3.69314 18.4192 3.39832 18.4192 3.09091C18.4192 2.7835 18.2875 2.48868 18.053 2.27131C17.8186 2.05394 17.5007 1.93182 17.1692 1.93182ZM3.83083 1.93182C3.66668 1.93182 3.50414 1.9618 3.35248 2.02005C3.20082 2.0783 3.06302 2.16368 2.94695 2.27131C2.83088 2.37894 2.7388 2.50672 2.67598 2.64734C2.61317 2.78797 2.58083 2.9387 2.58083 3.09091C2.58083 3.24312 2.61317 3.39385 2.67598 3.53447C2.7388 3.6751 2.83088 3.80288 2.94695 3.91051C3.06302 4.01814 3.20082 4.10352 3.35248 4.16177C3.50414 4.22002 3.66668 4.25 3.83083 4.25C4.16235 4.25 4.4803 4.12788 4.71472 3.91051C4.94914 3.69314 5.08083 3.39832 5.08083 3.09091C5.08083 2.7835 4.94914 2.48868 4.71472 2.27131C4.4803 2.05394 4.16235 1.93182 3.83083 1.93182Z" fill="white" fill-opacity="0.9"/>
</svg>
