<svg width="41" height="41" viewBox="0 0 41 41" fill="none" xmlns="http://www.w3.org/2000/svg">
<g filter="url(#filter0_d_420_191)">
<path d="M13.3129 16.1769C13.3129 15.6113 13.3133 15.217 13.3353 14.9088C13.3569 14.606 13.3973 14.4303 13.4558 14.2963C13.6285 13.9004 13.9445 13.5844 14.3405 13.4116C14.4745 13.3532 14.6502 13.3127 14.953 13.2911C15.2612 13.2691 15.6555 13.2687 16.221 13.2687C16.7866 13.2687 17.1809 13.2691 17.4891 13.2911C17.7919 13.3127 17.9676 13.3532 18.1016 13.4116C18.4975 13.5844 18.8135 13.9004 18.9863 14.2963C19.0447 14.4303 19.0852 14.606 19.1068 14.9088C19.1288 15.217 19.1292 15.6113 19.1292 16.1769C19.1292 16.7424 19.1288 17.1367 19.1068 17.4449C19.0852 17.7477 19.0447 17.9234 18.9863 18.0574C18.8135 18.4534 18.4975 18.7694 18.1016 18.9421C17.9676 19.0006 17.7919 19.041 17.4891 19.0626C17.1809 19.0846 16.7866 19.085 16.221 19.085C15.6555 19.085 15.2612 19.0846 14.953 19.0626C14.6502 19.041 14.4745 19.0006 14.3405 18.9421C13.9445 18.7694 13.6285 18.4534 13.4558 18.0574C13.3973 17.9234 13.3569 17.7477 13.3353 17.4449C13.3133 17.1367 13.3129 16.7424 13.3129 16.1769Z" stroke="white" stroke-width="1.1415"/>
<path d="M13.3129 24.4392C13.3129 23.8736 13.3133 23.4793 13.3353 23.1711C13.3569 22.8683 13.3973 22.6926 13.4558 22.5586C13.6285 22.1627 13.9445 21.8467 14.3405 21.6739C14.4745 21.6155 14.6502 21.575 14.953 21.5534C15.2612 21.5314 15.6555 21.531 16.221 21.531C16.7866 21.531 17.1809 21.5314 17.4891 21.5534C17.7919 21.575 17.9676 21.6155 18.1016 21.6739C18.4975 21.8467 18.8135 22.1627 18.9863 22.5586C19.0447 22.6926 19.0852 22.8683 19.1068 23.1711C19.1288 23.4793 19.1292 23.8736 19.1292 24.4392C19.1292 25.0047 19.1288 25.399 19.1068 25.7072C19.0852 26.01 19.0447 26.1857 18.9863 26.3197C18.8135 26.7157 18.4975 27.0317 18.1016 27.2044C17.9676 27.2628 17.7919 27.3033 17.4891 27.3249C17.1809 27.3469 16.7866 27.3473 16.221 27.3473C15.6555 27.3473 15.2612 27.3469 14.953 27.3249C14.6502 27.3033 14.4745 27.2628 14.3405 27.2044C13.9445 27.0317 13.6285 26.7157 13.4558 26.3197C13.3973 26.1857 13.3569 26.01 13.3353 25.7072C13.3133 25.399 13.3129 25.0047 13.3129 24.4392Z" stroke="white" stroke-width="1.1415"/>
<path d="M21.5747 16.1769C21.5747 15.6113 21.575 15.217 21.597 14.9088C21.6186 14.606 21.6591 14.4303 21.7175 14.2963C21.8903 13.9004 22.2063 13.5844 22.6022 13.4116C22.7362 13.3532 22.912 13.3127 23.2147 13.2911C23.5229 13.2691 23.9172 13.2687 24.4828 13.2687C25.0484 13.2687 25.4426 13.2691 25.7508 13.2911C26.0536 13.3127 26.2294 13.3532 26.3633 13.4116C26.7593 13.5844 27.0753 13.9004 27.248 14.2963C27.3065 14.4303 27.3469 14.606 27.3685 14.9088C27.3905 15.217 27.3909 15.6113 27.3909 16.1769C27.3909 16.7424 27.3905 17.1367 27.3685 17.4449C27.3469 17.7477 27.3065 17.9234 27.248 18.0574C27.0753 18.4534 26.7593 18.7694 26.3633 18.9421C26.2294 19.0006 26.0536 19.041 25.7508 19.0626C25.4426 19.0846 25.0484 19.085 24.4828 19.085C23.9172 19.085 23.5229 19.0846 23.2147 19.0626C22.912 19.041 22.7362 19.0006 22.6022 18.9421C22.2063 18.7694 21.8903 18.4534 21.7175 18.0574C21.6591 17.9234 21.6186 17.7477 21.597 17.4449C21.575 17.1367 21.5747 16.7424 21.5747 16.1769Z" stroke="white" stroke-width="1.1415"/>
<path d="M21.5747 24.4392C21.5747 23.8736 21.575 23.4793 21.597 23.1711C21.6186 22.8683 21.6591 22.6926 21.7175 22.5586C21.8903 22.1627 22.2063 21.8467 22.6022 21.6739C22.7362 21.6155 22.912 21.575 23.2147 21.5534C23.5229 21.5314 23.9172 21.531 24.4828 21.531C25.0484 21.531 25.4426 21.5314 25.7508 21.5534C26.0536 21.575 26.2294 21.6155 26.3633 21.6739C26.7593 21.8467 27.0753 22.1627 27.248 22.5586C27.3065 22.6926 27.3469 22.8683 27.3685 23.1711C27.3905 23.4793 27.3909 23.8736 27.3909 24.4392C27.3909 25.0047 27.3905 25.399 27.3685 25.7072C27.3469 26.01 27.3065 26.1857 27.248 26.3197C27.0753 26.7157 26.7593 27.0317 26.3633 27.2044C26.2294 27.2628 26.0536 27.3033 25.7508 27.3249C25.4426 27.3469 25.0484 27.3473 24.4828 27.3473C23.9172 27.3473 23.5229 27.3469 23.2147 27.3249C22.912 27.3033 22.7362 27.2628 22.6022 27.2044C22.2063 27.0317 21.8903 26.7157 21.7175 26.3197C21.6591 26.1857 21.6186 26.01 21.597 25.7072C21.575 25.399 21.5747 25.0047 21.5747 24.4392Z" stroke="white" stroke-width="1.1415"/>
</g>
<defs>
<filter id="filter0_d_420_191" x="-0.956273" y="-1" width="42.6157" height="42.616" filterUnits="userSpaceOnUse" color-interpolation-filters="sRGB">
<feFlood flood-opacity="0" result="BackgroundImageFix"/>
<feColorMatrix in="SourceAlpha" type="matrix" values="0 0 0 0 0 0 0 0 0 0 0 0 0 0 0 0 0 0 127 0" result="hardAlpha"/>
<feOffset/>
<feGaussianBlur stdDeviation="6.088"/>
<feComposite in2="hardAlpha" operator="out"/>
<feColorMatrix type="matrix" values="0 0 0 0 1 0 0 0 0 1 0 0 0 0 1 0 0 0 1 0"/>
<feBlend mode="overlay" in2="BackgroundImageFix" result="effect1_dropShadow_420_191"/>
<feBlend mode="normal" in="SourceGraphic" in2="effect1_dropShadow_420_191" result="shape"/>
</filter>
</defs>
</svg>
