<svg width="22" height="22" viewBox="0 0 22 22" fill="white" xmlns="http://www.w3.org/2000/svg">
<path d="M21.2197 2.66901V19.6237C21.2197 20.7628 20.3291 21.6487 19.1947 21.6487H2.24473C1.12441 21.644 0.219727 20.7721 0.219727 19.619V2.66901C0.219727 1.53932 1.10098 0.644012 2.24473 0.644012H19.1994C20.3244 0.644012 21.2197 1.52526 21.2197 2.66901ZM19.4713 19.619V2.66901C19.4713 2.52839 19.3494 2.39714 19.1994 2.39714H18.7635L13.5932 5.89401L10.7197 3.55495L7.85098 5.89401L2.68066 2.39245H2.24473C2.09473 2.39245 1.97285 2.5237 1.97285 2.66432V19.619C1.97285 19.7596 2.09473 19.8909 2.24473 19.8909H19.1994C19.3494 19.8956 19.4713 19.7643 19.4713 19.619ZM7.26035 7.86276V9.59714H3.81504V7.86276H7.26035ZM7.26035 11.3503V13.0987H3.81504V11.3503H7.26035ZM7.78066 4.44557L10.3119 2.39714H4.75723L7.78066 4.44557ZM17.6244 7.86276V9.59714H8.43691V7.86276H17.6244ZM17.6244 11.3503V13.0987H8.43691V11.3503H17.6244ZM13.6588 4.44557L16.6822 2.39714H11.1322L13.6588 4.44557ZM17.6244 14.8471V16.5956H12.965V14.8471H17.6244Z" fill="#BBBBBB"/>
</svg>
