<svg width="21" height="20" viewBox="0 0 21 20" fill="none" xmlns="http://www.w3.org/2000/svg">
<path d="M7.77344 4.45312C7.77344 5.00541 8.22115 5.45312 8.77344 5.45312H12.2266C12.7788 5.45312 13.2266 5.00541 13.2266 4.45312V1C13.2266 0.447715 12.7788 0 12.2266 0H8.77344C8.22115 0 7.77344 0.447715 7.77344 1V4.45312ZM16.0469 0C15.4946 0 15.0469 0.447715 15.0469 1V4.45312C15.0469 5.00541 15.4946 5.45312 16.0469 5.45312H19.5C20.0523 5.45312 20.5 5.00541 20.5 4.45312V1C20.5 0.447715 20.0523 0 19.5 0H16.0469ZM0.5 4.45312C0.5 5.00541 0.947715 5.45312 1.5 5.45312H4.95312C5.50541 5.45312 5.95312 5.00541 5.95312 4.45312V1C5.95312 0.447715 5.50541 0 4.95312 0H1.5C0.947715 0 0.5 0.447715 0.5 1V4.45312ZM7.77344 11.7266C7.77344 12.2788 8.22115 12.7266 8.77344 12.7266H12.2266C12.7788 12.7266 13.2266 12.2788 13.2266 11.7266V8.27344C13.2266 7.72115 12.7788 7.27344 12.2266 7.27344H8.77344C8.22115 7.27344 7.77344 7.72115 7.77344 8.27344V11.7266ZM15.0469 11.7266C15.0469 12.2788 15.4946 12.7266 16.0469 12.7266H19.5C20.0523 12.7266 20.5 12.2788 20.5 11.7266V8.27344C20.5 7.72115 20.0523 7.27344 19.5 7.27344H16.0469C15.4946 7.27344 15.0469 7.72115 15.0469 8.27344V11.7266ZM0.5 11.7266C0.5 12.2788 0.947715 12.7266 1.5 12.7266H4.95312C5.50541 12.7266 5.95312 12.2788 5.95312 11.7266V8.27344C5.95312 7.72115 5.50541 7.27344 4.95312 7.27344H1.5C0.947715 7.27344 0.5 7.72115 0.5 8.27344V11.7266ZM7.77344 19C7.77344 19.5523 8.22115 20 8.77344 20H12.2266C12.7788 20 13.2266 19.5523 13.2266 19V15.5469C13.2266 14.9946 12.7788 14.5469 12.2266 14.5469H8.77344C8.22115 14.5469 7.77344 14.9946 7.77344 15.5469V19ZM15.0469 19C15.0469 19.5523 15.4946 20 16.0469 20H19.5C20.0523 20 20.5 19.5523 20.5 19V15.5469C20.5 14.9946 20.0523 14.5469 19.5 14.5469H16.0469C15.4946 14.5469 15.0469 14.9946 15.0469 15.5469V19ZM0.5 19C0.5 19.5523 0.947715 20 1.5 20H4.95312C5.50541 20 5.95312 19.5523 5.95312 19V15.5469C5.95312 14.9946 5.50541 14.5469 4.95312 14.5469H1.5C0.947715 14.5469 0.5 14.9946 0.5 15.5469V19Z" fill="#FFFDFD"/>
</svg>
