<svg width="25" height="25" viewBox="0 0 25 25" xmlns="http://www.w3.org/2000/svg">
  <path d="M10.2197 9.19992C10.2197 8.61295 10.4387 8.23755 10.7261 7.99368C11.0352 7.73136 11.4831 7.57492 11.9697 7.57492C12.4564 7.57492 12.9042 7.73136 13.2134 7.99368C13.5008 8.23755 13.7197 8.61295 13.7197 9.19992C13.7197 9.63709 13.6167 9.87979 13.4971 10.0593C13.3574 10.2687 13.1737 10.4338 12.8631 10.7131L12.8008 10.7691C12.4812 11.0568 12.0607 11.4456 11.7401 12.012C11.4097 12.5957 11.2197 13.301 11.2197 14.1999C11.2197 14.7522 11.6674 15.1999 12.2197 15.1999C12.772 15.1999 13.2197 14.7522 13.2197 14.1999C13.2197 13.5988 13.3423 13.2416 13.4806 12.9972C13.6288 12.7355 13.8333 12.5306 14.1387 12.2557C14.1662 12.231 14.1952 12.2051 14.2254 12.1782C14.4987 11.9346 14.873 11.601 15.1612 11.1687C15.5102 10.6451 15.7197 10.0128 15.7197 9.19992C15.7197 8.03689 15.2512 7.09979 14.5073 6.46866C13.7852 5.85598 12.8581 5.57492 11.9697 5.57492C11.0814 5.57492 10.1542 5.85598 9.43212 6.46866C8.6883 7.09979 8.21973 8.03689 8.21973 9.19992C8.21973 9.7522 8.66744 10.1999 9.21973 10.1999C9.77201 10.1999 10.2197 9.7522 10.2197 9.19992Z" fill="white" fill-opacity="0.733333"/>
  <path d="M12.9696 18.8716C13.3412 18.463 13.3111 17.8305 12.9024 17.459C12.4938 17.0875 11.8613 17.1176 11.4898 17.5262L11.4798 17.5372C11.1083 17.9459 11.1384 18.5783 11.547 18.9498C11.9557 19.3214 12.5881 19.2913 12.9596 18.8826L12.9696 18.8716Z" fill="white" fill-opacity="0.733333"/>
  <path fill-rule="evenodd" clip-rule="evenodd" d="M12.2197 1.19992C6.14444 1.19992 1.21973 6.12464 1.21973 12.1999C1.21973 18.2752 6.14444 23.1999 12.2197 23.1999C18.295 23.1999 23.2197 18.2752 23.2197 12.1999C23.2197 6.12464 18.295 1.19992 12.2197 1.19992ZM3.21973 12.1999C3.21973 7.22921 7.24901 3.19992 12.2197 3.19992C17.1904 3.19992 21.2197 7.22921 21.2197 12.1999C21.2197 17.1706 17.1904 21.1999 12.2197 21.1999C7.24901 21.1999 3.21973 17.1706 3.21973 12.1999Z" fill="white" fill-opacity="0.733333"/>
</svg>

