<svg width="21" height="21" viewBox="0 0 21 21" fill="none" xmlns="http://www.w3.org/2000/svg">
<path d="M6.05273 2.21864C5.38969 2.21864 4.75381 2.48204 4.28497 2.95088C3.81613 3.41972 3.55273 4.0556 3.55273 4.71864V16.3853C3.55273 17.0484 3.81613 17.6842 4.28497 18.1531C4.75381 18.6219 5.38969 18.8853 6.05273 18.8853H14.3861C15.0491 18.8853 15.685 18.6219 16.1538 18.1531C16.6227 17.6842 16.8861 17.0484 16.8861 16.3853V15.552C16.8861 15.0917 16.513 14.7186 16.0527 14.7186C15.5925 14.7186 15.2194 15.0917 15.2194 15.552V16.3853C15.2194 16.6063 15.1316 16.8183 14.9753 16.9746C14.819 17.1308 14.6071 17.2186 14.3861 17.2186H6.05273C5.83172 17.2186 5.61976 17.1308 5.46348 16.9746C5.3072 16.8183 5.2194 16.6063 5.2194 16.3853V4.71864C5.2194 4.49763 5.3072 4.28567 5.46348 4.12939C5.61976 3.97311 5.83172 3.88531 6.05273 3.88531H14.3861C14.6071 3.88531 14.819 3.97311 14.9753 4.12939C15.1316 4.28567 15.2194 4.49763 15.2194 4.71864V5.55198C15.2194 6.01221 15.5925 6.38531 16.0527 6.38531C16.513 6.38531 16.8861 6.01221 16.8861 5.55198V4.71864C16.8861 4.0556 16.6227 3.41972 16.1538 2.95088C15.685 2.48204 15.0491 2.21864 14.3861 2.21864H6.05273Z" fill="#BBBBBB" fill-opacity="0.733333"/>
<path d="M14.142 7.46272C13.8166 7.13728 13.2889 7.13728 12.9635 7.46272C12.638 7.78816 12.638 8.3158 12.9635 8.64123L14.0409 9.71864H10.2194C9.75916 9.71864 9.38607 10.0917 9.38607 10.552C9.38607 11.0122 9.75916 11.3853 10.2194 11.3853H14.0409L12.9635 12.4627C12.638 12.7882 12.638 13.3158 12.9635 13.6412C13.2889 13.9667 13.8166 13.9667 14.142 13.6412L16.642 11.1412C16.9674 10.8158 16.9674 10.2882 16.642 9.96272L14.142 7.46272Z" fill="#BBBBBB" fill-opacity="0.733333"/>
</svg>
