<svg width="22" height="18" viewBox="0 0 22 18" fill="none" xmlns="http://www.w3.org/2000/svg">
<path d="M4.46973 4.66696C4.46973 3.97077 4.74629 3.30309 5.23857 2.81081C5.73085 2.31852 6.39853 2.04196 7.09473 2.04196C7.79092 2.04196 8.4586 2.31852 8.95088 2.81081C9.44316 3.30309 9.71973 3.97077 9.71973 4.66696C9.71973 5.36315 9.44316 6.03083 8.95088 6.52312C8.4586 7.0154 7.79092 7.29196 7.09473 7.29196C6.39853 7.29196 5.73085 7.0154 5.23857 6.52312C4.74629 6.03083 4.46973 5.36315 4.46973 4.66696ZM7.09473 0.541962C6.00071 0.541962 4.9515 0.976559 4.17791 1.75015C3.40432 2.52373 2.96973 3.57294 2.96973 4.66696C2.96973 5.76098 3.40432 6.81019 4.17791 7.58378C4.9515 8.35737 6.00071 8.79196 7.09473 8.79196C8.18874 8.79196 9.23796 8.35737 10.0115 7.58378C10.7851 6.81019 11.2197 5.76098 11.2197 4.66696C11.2197 3.57294 10.7851 2.52373 10.0115 1.75015C9.23796 0.976559 8.18874 0.541962 7.09473 0.541962ZM14.9697 5.79196C14.9697 5.39414 15.1278 5.01261 15.4091 4.7313C15.6904 4.45 16.0719 4.29196 16.4697 4.29196C16.8676 4.29196 17.2491 4.45 17.5304 4.7313C17.8117 5.01261 17.9697 5.39414 17.9697 5.79196C17.9697 6.18979 17.8117 6.57132 17.5304 6.85262C17.2491 7.13393 16.8676 7.29196 16.4697 7.29196C16.0719 7.29196 15.6904 7.13393 15.4091 6.85262C15.1278 6.57132 14.9697 6.18979 14.9697 5.79196ZM16.4697 2.79196C15.6741 2.79196 14.911 3.10803 14.3484 3.67064C13.7858 4.23325 13.4697 4.99631 13.4697 5.79196C13.4697 6.58761 13.7858 7.35067 14.3484 7.91328C14.911 8.47589 15.6741 8.79196 16.4697 8.79196C17.2654 8.79196 18.0284 8.47589 18.591 7.91328C19.1537 7.35067 19.4697 6.58761 19.4697 5.79196C19.4697 4.99631 19.1537 4.23325 18.591 3.67064C18.0284 3.10803 17.2654 2.79196 16.4697 2.79196ZM0.719727 12.542C0.719727 11.9452 0.95678 11.3729 1.37874 10.951C1.80069 10.529 2.37299 10.292 2.96973 10.292H11.2197C11.8165 10.292 12.3888 10.529 12.8107 10.951C13.2327 11.3729 13.4697 11.9452 13.4697 12.542V12.7115C13.4683 12.7814 13.4633 12.8513 13.4547 12.9207C13.4397 13.0505 13.412 13.2267 13.3572 13.4352C13.2131 13.9852 12.9582 14.5 12.608 14.948C11.7305 16.0745 10.0797 17.042 7.09473 17.042C4.10973 17.042 2.45973 16.0745 1.58148 14.948C1.23101 14.5001 0.975785 13.9853 0.831477 13.4352C0.77419 13.2146 0.737532 12.9891 0.721977 12.7617C0.721252 12.745 0.720751 12.7282 0.720477 12.7115V12.6942L0.719727 12.6882V12.6822V12.542ZM2.21973 12.6755V12.6845C2.23012 12.8106 2.25145 12.9355 2.28348 13.058C2.35098 13.319 2.48823 13.6715 2.76423 14.0262C3.29298 14.7042 4.45473 15.542 7.09473 15.542C9.73473 15.542 10.8972 14.7042 11.4252 14.027C11.6495 13.74 11.8128 13.4102 11.9052 13.058C11.9375 12.9356 11.9591 12.8106 11.9697 12.6845L11.9705 12.6755V12.542C11.9705 12.343 11.8915 12.1523 11.7508 12.0116C11.6102 11.871 11.4194 11.792 11.2205 11.792H2.96973C2.77081 11.792 2.58005 11.871 2.4394 12.0116C2.29874 12.1523 2.21973 12.343 2.21973 12.542V12.6755ZM13.8275 15.161C14.525 15.398 15.3927 15.542 16.4697 15.542C18.8705 15.542 20.2347 14.8272 20.9795 13.9482C21.3417 13.5207 21.527 13.0872 21.6207 12.7542C21.6713 12.5757 21.7037 12.3925 21.7175 12.2075L21.7182 12.1805L21.719 12.164V12.1355C21.7191 11.8934 21.6715 11.6537 21.5789 11.43C21.4864 11.2064 21.3506 11.0031 21.1795 10.832C21.0084 10.6608 20.8052 10.525 20.5816 10.4323C20.358 10.3397 20.1183 10.292 19.8762 10.292H13.7345C14.1095 10.7112 14.3817 11.2242 14.5107 11.792H19.8762C20.0637 11.792 20.2152 11.9412 20.2197 12.1265C20.2124 12.2011 20.1983 12.2749 20.1777 12.347C20.1312 12.512 20.0352 12.743 19.835 12.9792C19.4547 13.4285 18.569 14.042 16.4697 14.042C15.596 14.042 14.933 13.9355 14.429 13.7795C14.2956 14.2663 14.093 14.7316 13.8275 15.161Z" fill="#BBBBBB" fill-opacity="0.733333"/>
</svg>
