<svg width="25" height="25" viewBox="0 0 25 25" fill="none" xmlns="http://www.w3.org/2000/svg">
<path d="M12.2197 15.8479C13.8766 15.8479 15.2197 14.5047 15.2197 12.8479C15.2197 11.191 13.8766 9.84787 12.2197 9.84787C10.5629 9.84787 9.21973 11.191 9.21973 12.8479C9.21973 14.5047 10.5629 15.8479 12.2197 15.8479Z" stroke="#BBBBBB" stroke-opacity="0.733333" stroke-width="1.875"/>
<path d="M13.9852 2.99987C13.6182 2.84787 13.1522 2.84787 12.2202 2.84787C11.2882 2.84787 10.8222 2.84787 10.4552 2.99987C10.2124 3.10038 9.99173 3.24777 9.8059 3.43359C9.62007 3.61942 9.47269 3.84005 9.37218 4.08287C9.28018 4.30587 9.24318 4.56687 9.22918 4.94587C9.22295 5.21986 9.14718 5.48777 9.00899 5.72444C8.8708 5.96111 8.67472 6.15878 8.43918 6.29887C8.20007 6.43291 7.93082 6.50397 7.65671 6.50537C7.3826 6.50677 7.11264 6.43846 6.87218 6.30687C6.53618 6.12887 6.29318 6.03087 6.05218 5.99887C5.5265 5.92974 4.99488 6.07218 4.57418 6.39487C4.26018 6.63787 4.02618 7.04087 3.56018 7.84787C3.09418 8.65487 2.86018 9.05787 2.80918 9.45287C2.77481 9.71332 2.7921 9.97799 2.86004 10.2318C2.92799 10.4855 3.04527 10.7234 3.20518 10.9319C3.35318 11.1239 3.56018 11.2849 3.88118 11.4869C4.35418 11.7839 4.65818 12.2899 4.65818 12.8479C4.65818 13.4059 4.35418 13.9119 3.88118 14.2079C3.56018 14.4109 3.35218 14.5719 3.20518 14.7639C3.04527 14.9723 2.92799 15.2102 2.86004 15.464C2.7921 15.7177 2.77481 15.9824 2.80918 16.2429C2.86118 16.6369 3.09418 17.0409 3.55918 17.8479C4.02618 18.6549 4.25918 19.0579 4.57418 19.3009C4.78261 19.4608 5.02051 19.5781 5.27428 19.646C5.52805 19.714 5.79272 19.7312 6.05318 19.6969C6.29318 19.6649 6.53618 19.5669 6.87218 19.3889C7.11264 19.2573 7.3826 19.189 7.65671 19.1904C7.93082 19.1918 8.20007 19.2628 8.43918 19.3969C8.92218 19.6769 9.20918 20.1919 9.22918 20.7499C9.24318 21.1299 9.27918 21.3899 9.37218 21.6129C9.47269 21.8557 9.62007 22.0763 9.8059 22.2621C9.99173 22.448 10.2124 22.5954 10.4552 22.6959C10.8222 22.8479 11.2882 22.8479 12.2202 22.8479C13.1522 22.8479 13.6182 22.8479 13.9852 22.6959C14.228 22.5954 14.4486 22.448 14.6345 22.2621C14.8203 22.0763 14.9677 21.8557 15.0682 21.6129C15.1602 21.3899 15.1972 21.1299 15.2112 20.7499C15.2312 20.1919 15.5182 19.6759 16.0012 19.3969C16.2403 19.2628 16.5095 19.1918 16.7836 19.1904C17.0578 19.189 17.3277 19.2573 17.5682 19.3889C17.9042 19.5669 18.1472 19.6649 18.3872 19.6969C18.6476 19.7312 18.9123 19.714 19.1661 19.646C19.4198 19.5781 19.6577 19.4608 19.8662 19.3009C20.1812 19.0589 20.4142 18.6549 20.8802 17.8479C21.3462 17.0409 21.5802 16.6379 21.6312 16.2429C21.6655 15.9824 21.6483 15.7177 21.5803 15.464C21.5124 15.2102 21.3951 14.9723 21.2352 14.7639C21.0872 14.5719 20.8802 14.4109 20.5592 14.2089C20.3249 14.0665 20.1307 13.8669 19.9948 13.6288C19.8589 13.3907 19.7857 13.122 19.7822 12.8479C19.7822 12.2899 20.0862 11.7839 20.5592 11.4879C20.8802 11.2849 21.0882 11.1239 21.2352 10.9319C21.3951 10.7234 21.5124 10.4855 21.5803 10.2318C21.6483 9.97799 21.6655 9.71332 21.6312 9.45287C21.5792 9.05887 21.3462 8.65487 20.8812 7.84787C20.4142 7.04087 20.1812 6.63787 19.8662 6.39487C19.6577 6.23496 19.4198 6.11768 19.1661 6.04974C18.9123 5.98179 18.6476 5.96451 18.3872 5.99887C18.1472 6.03087 17.9042 6.12887 17.5672 6.30687C17.3268 6.43829 17.0571 6.50649 16.7831 6.50509C16.5092 6.50369 16.2402 6.43273 16.0012 6.29887C15.7656 6.15878 15.5696 5.96111 15.4314 5.72444C15.2932 5.48777 15.2174 5.21986 15.2112 4.94587C15.1972 4.56587 15.1612 4.30587 15.0682 4.08287C14.9677 3.84005 14.8203 3.61942 14.6345 3.43359C14.4486 3.24777 14.228 3.10038 13.9852 2.99987Z" stroke="#BBBBBB" stroke-opacity="0.733333" stroke-width="1.875"/>
</svg>
