<svg width="23" height="23" viewBox="0 0 23 23" fill="none" xmlns="http://www.w3.org/2000/svg">
<path d="M0.219727 2.49582C0.219727 1.96539 0.43044 1.45668 0.805513 1.08161C1.18059 0.706533 1.68929 0.495819 2.21973 0.495819H8.71973C9.25016 0.495819 9.75887 0.706533 10.1339 1.08161C10.509 1.45668 10.7197 1.96539 10.7197 2.49582V8.99582C10.7197 9.52625 10.509 10.035 10.1339 10.41C9.75887 10.7851 9.25016 10.9958 8.71973 10.9958H6.21973V15.0588C6.21973 15.8508 6.86373 16.4958 7.65773 16.4958H11.7197V13.9958C11.7197 13.4654 11.9304 12.9567 12.3055 12.5816C12.6806 12.2065 13.1893 11.9958 13.7197 11.9958H20.2197C20.7502 11.9958 21.2589 12.2065 21.6339 12.5816C22.009 12.9567 22.2197 13.4654 22.2197 13.9958V20.4958C22.2197 21.0263 22.009 21.535 21.6339 21.91C21.2589 22.2851 20.7502 22.4958 20.2197 22.4958H13.7197C13.1893 22.4958 12.6806 22.2851 12.3055 21.91C11.9304 21.535 11.7197 21.0263 11.7197 20.4958V17.9958H7.65673C6.87778 17.9953 6.13089 17.6855 5.58019 17.1347C5.02948 16.5838 4.71999 15.8368 4.71973 15.0578V10.9958H2.21973C1.68929 10.9958 1.18059 10.7851 0.805513 10.41C0.43044 10.035 0.219727 9.52625 0.219727 8.99582V2.49582ZM2.21973 1.99582C2.08712 1.99582 1.95994 2.0485 1.86617 2.14227C1.77241 2.23603 1.71973 2.36321 1.71973 2.49582V8.99582C1.71973 9.12843 1.77241 9.2556 1.86617 9.34937C1.95994 9.44314 2.08712 9.49582 2.21973 9.49582H8.71973C8.85233 9.49582 8.97951 9.44314 9.07328 9.34937C9.16705 9.2556 9.21973 9.12843 9.21973 8.99582V2.49582C9.21973 2.36321 9.16705 2.23603 9.07328 2.14227C8.97951 2.0485 8.85233 1.99582 8.71973 1.99582H2.21973ZM13.7197 13.4958C13.5871 13.4958 13.4599 13.5485 13.3662 13.6423C13.2724 13.736 13.2197 13.8632 13.2197 13.9958V20.4958C13.2197 20.6284 13.2724 20.7556 13.3662 20.8494C13.4599 20.9431 13.5871 20.9958 13.7197 20.9958H20.2197C20.3523 20.9958 20.4795 20.9431 20.5733 20.8494C20.667 20.7556 20.7197 20.6284 20.7197 20.4958V13.9958C20.7197 13.8632 20.667 13.736 20.5733 13.6423C20.4795 13.5485 20.3523 13.4958 20.2197 13.4958H13.7197Z" fill="#BBBBBB" fill-opacity="0.733333"/>
</svg>
